<svg xmlns="http://www.w3.org/2000/svg" viewBox="0 0 64 64" role="img" aria-label="SME Brain Dump favicon"><rect width="64" height="64" rx="16" fill="#181d26"/><path d="M20 22c0-4 4-7 10-7 5 0 9 2 11 5 5 0 9 4 9 9 0 4-2 7-5 9 1 2 1 4 1 6 0 6-5 10-11 10h-4c-7 0-12-4-12-10 0-2 1-4 2-5-4-2-6-6-6-10 0-4 2-7 5-9z" fill="#c75c2a"/><circle cx="26" cy="29" r="2.5" fill="#fff"/><circle cx="38" cy="29" r="2.5" fill="#fff"/><path d="M24 37c2 3 4 4 8 4 4 0 7-1 9-4" fill="none" stroke="#fff" stroke-width="2.5" stroke-linecap="round"/></svg>